<svg viewBox="0 0 882 511.2" xmlns="http://www.w3.org/2000/svg" xmlns:xlink="http://www.w3.org/1999/xlink"><radialGradient id="a" cx="431.325" cy="470.51" gradientUnits="userSpaceOnUse" r="229.78"><stop offset="0" stop-color="#bec0c2"/><stop offset="1" stop-color="#003a63"/></radialGradient><clipPath id="b"><path d="m436.5 487.7c-22.3-9-70.1-30.7-115.4-67.5-32.4-26.4-57.1-55.3-73.3-86-16.1-30.4-24.2-63.1-24.2-97.3v-112.4h.4v-37.6l-6.5-3.7-4-2.2h40.1c.8.1 2.6.3 5 .7h-.1c2.3.4 3.5 1 4 1.4l5.6 3.7 7.8 5.2 7.3-5.8 5.2-4.2c.1 0 .1-.1.3-.2.9-.6 2.3-1.1 4-1.3.8-.1 2.2-.1 2.9-.1h276.6c3.4.1 6.4.5 9.2 1.4l.2.1c.7.2 1.4.5 2 1 .1 0 .1.1.2.2l5.5 4.1 7.6 5.8 7.7-5.7 5.5-4.1c.3-.3.7-.5 1-.6.8-.4 1.7-.6 3-.8 3.7-.6 8-.7 15.8-.7h29.3l-3.4 1.9-6.5 3.7v38h.4v112.3c0 34.2-8.1 66.9-24.2 97.3-16.2 30.7-40.9 59.6-73.3 86-45.6 36.7-93.4 58.4-115.7 67.4z"/></clipPath><linearGradient id="c"><stop offset="0" stop-color="#b1b1b1"/><stop offset="1" stop-color="#002e62"/></linearGradient><radialGradient id="d" cx="437.32" cy="459.521" gradientUnits="userSpaceOnUse" r="269.743" xlink:href="#c"/><radialGradient id="e" cx="437.32" cy="459.521" gradientUnits="userSpaceOnUse" r="269.742" xlink:href="#c"/><radialGradient id="f" cx="437.32" cy="459.521" gradientUnits="userSpaceOnUse" r="269.741" xlink:href="#c"/><radialGradient id="g" cx="437.32" cy="459.521" gradientUnits="userSpaceOnUse" r="269.74" xlink:href="#c"/><radialGradient id="h" cx="437.32" cy="459.52" gradientUnits="userSpaceOnUse" r="269.745" xlink:href="#c"/><radialGradient id="i" cx="437.32" cy="459.52" gradientUnits="userSpaceOnUse" r="269.744" xlink:href="#c"/><path d="m593.6 485.5h-5.5l-1-4.9-19.9-57.6 6.4-2.2c54.2-18.5 97-53.2 105-60 .6-.5 13.8-10 13.8-10l-2.8 16.7c-3.3 12.4-9.2 26.2-17.6 40.9-1.8 3.1-3.5 5.9-4.9 8.3 21.9-.2 60.7-9.1 60.7-9.1l-12.9 13.9c-41.7 43.5-117.7 64-121.3 64zm-313.1 0c-3.6 0-79.6-20.5-121.2-64l-11.5-13.9s37.4 8.9 59.3 9.1c-1.5-2.4-3.2-5.2-4.9-8.3-8.4-14.8-14.3-28.5-17.6-40.9l-1.8-16.3s63.6 51.2 117.8 69.6l6.4 2.2-19.9 57.6-1 5z" fill="#bec0c2"/><path d="m683.2 365.7s-47 40.8-107.4 61.4c5.9 17.2 11.9 34.5 17.8 51.7.1.3 75.3-19.1 116.4-61.9 0 0-23.6 8.4-55.1 6.1 0 .1 20.6-28.7 28.3-57.3zm-492.2 0s47 40.8 107.4 61.4c-5.9 17.2-11.9 34.5-17.8 51.7-.1.3-75.3-19.1-116.4-61.9 0 0 23.6 8.4 55.1 6.1 0 .1-20.7-28.7-28.3-57.3z" fill="#003a63"/><g fill="#bec0c2"><path d="m436.8 472.8c-65 .1-129.7-12.7-192.1-37.7-2.2-.9-4.5-1.8-6.7-2.7.6-2.3 1.2-4.5 1.8-6.8 4.5-16.5 8.9-32.9 13.4-49.4.6-2.3 1.2-4.5 1.8-6.8 2.2.9 4.5 1.8 6.7 2.6 56.9 22.2 115.8 33.5 175 33.4s118.1-11.6 175-33.9c2.2-.9 4.5-1.8 6.7-2.7.6 2.3 1.2 4.5 1.8 6.8 4.5 16.5 8.9 32.9 13.4 49.4.6 2.3 1.2 4.5 1.8 6.8-2.2.9-4.5 1.8-6.7 2.7-62.2 25.3-126.9 38.2-191.9 38.3z"/><path d="m436.1 479.8c-65.4 0-130.7-12.9-193.9-38.2-2.2-.9-4.5-1.8-6.7-2.7l-5.8-2.3 3.5-12.8c4.5-16.5 8.9-32.9 13.4-49.4l3.9-14.4 7.3 2.9c2.2.9 4.5 1.8 6.7 2.6 56.1 21.9 113.9 33 171.8 33h.7c58.1-.1 116.1-11.3 172.4-33.4 2.2-.9 4.5-1.8 6.7-2.6l7.3-2.9 3.9 14.4c4.5 16.5 8.9 32.9 13.4 49.4l3.3 12.6-5.7 2.3c-2.3.9-4.5 1.8-6.8 2.7-63.5 25.6-129 38.6-194.7 38.7zm-189.7-51.6c.3.1.6.3.9.4 61.6 24.7 125.1 37.2 188.7 37.2h.7c63.9-.1 127.6-12.8 189.5-37.7.3-.1.6-.3 1-.4l-.2-.8-13.2-48.6c-57.8 22.6-117.3 34.1-177 34.2h-.7c-59.4 0-118.8-11.3-176.3-33.7-4.4 16.3-8.8 32.5-13.2 48.7z"/><path d="m882 .1-236.4-.1v3c-7.8-2.2-15.4-2.6-22.5-2.8l-395.8-.2-2 15.3c-1.3-1.4-2.6-2.7-4-3.8l-.5-.4c-5.8-4.8-13.7-8.2-22.2-9.5-7.7-1.3-16.5-1.6-28.2-1.6l-170.4.1 106 59.1v192.4h70.2c4 0 6.6-.1 8.5-.2 1 0 1.7-.1 2.4-.1h1.4c5.2-.3 9.5-.9 13.4-1.8 1.8 33.3 10.6 65.1 26.4 94.9 17.8 33.6 44.2 64.5 78.8 92.8 51.5 41.9 105.7 65 125.8 72.7l3.5 1.3 3.5-1.3c20.1-7.7 74.3-30.8 125.8-72.7 34.7-28.2 61.1-59.2 78.8-92.8 15.4-29.2 24.3-60.3 26.3-92.8h29.2l19-.3c10.2 0 18.7-.6 27-3.2 9.1-2.7 17.5-9 22.6-16.8 4.1-5.9 6.8-13.3 7.8-20.8 1-6.8 1.1-14.1 1.2-26v-115.8c0-4.1 0-7.4-.1-10.3z"/></g><path d="m436.5 501.4-.2-.1c-20.4-7.9-73.3-30.6-123.3-71.3-33.7-27.5-59.5-57.8-76.5-90-17.1-32.2-25.7-67-25.7-103.3v-125h.4v-17.3l-4.7-2.6-41.9-23.5h89.6c.4 0 2.8.3 6.5.9 3.5.6 6.5 1.7 8.8 3.3l5.6 3.7 5.2-4.2c.3-.3.7-.5 1-.8 2.7-1.9 6-3 9.8-3.5h.1c1.1-.1 2.5-.2 4-.2s3.3-.1 5.4-.1h271.7c4.7.1 9 .8 13 2 2 .6 3.9 1.5 5.6 2.7.2.1.4.3.5.4l5.4 4.1 5.5-4.1c1-.8 2.1-1.4 3.3-1.9 1.8-.8 3.8-1.4 6.1-1.8 4.5-.8 9.4-.9 17.9-.9h78.3l-41.4 23.2-4.7 2.6v17.8h.4v125.1c0 36.3-8.6 71.1-25.7 103.3-17 32.2-42.8 62.5-76.5 90-49.9 40.7-102.9 63.4-123.3 71.3z" fill="#003a63"/><path d="m436.5 487.7c-22.3-9-70.1-30.7-115.4-67.5-32.4-26.4-57.1-55.3-73.3-86-16.1-30.4-24.2-63.1-24.2-97.3v-112.4h.4v-37.6l-6.5-3.7-4-2.2h40.1c.8.1 2.6.3 5 .7h-.1c2.3.4 3.5 1 4 1.4l5.6 3.7 7.8 5.2 7.3-5.8 5.2-4.2c.1 0 .1-.1.3-.2.9-.6 2.3-1.1 4-1.3.8-.1 2.2-.1 2.9-.1h276.6c3.4.1 6.4.5 9.2 1.4l.2.1c.7.2 1.4.5 2 1 .1 0 .1.1.2.2l5.5 4.1 7.6 5.8 7.7-5.7 5.5-4.1c.3-.3.7-.5 1-.6.8-.4 1.7-.6 3-.8 3.7-.6 8-.7 15.8-.7h29.3l-3.4 1.9-6.5 3.7v38h.4v112.3c0 34.2-8.1 66.9-24.2 97.3-16.2 30.7-40.9 59.6-73.3 86-45.6 36.7-93.4 58.4-115.7 67.4z" fill="url(#a)"/><path d="m466.9 90.1v.1" fill="#bec0c2"/><g clip-path="url(#b)"><path d="m437.4 519.8 308-168.7c-5.1-9.2-10.5-18.2-16.3-26.8z" fill="url(#d)"/><path d="m437.4 519.8 165.2-309.9c-9.2-4.9-18.7-9.4-28.3-13.5z" fill="url(#e)"/><path d="m437.4 519.8 222-272c-8.1-6.6-16.5-12.9-25.2-18.8z" fill="url(#d)"/><g fill="url(#e)"><path d="m437.4 519.8-349.7-31.4c-.9 10.3-1.4 20.8-1.4 31.4z"/><path d="m437.4 519.8 98.5-337.1c-10-2.9-20.2-5.4-30.5-7.4z"/><path d="m437.4 519.8 269.5-225.1c-6.7-8-13.8-15.8-21.2-23.2z"/></g><path d="m437.4 519.8 336-102.3c-3.1-10.1-6.6-19.9-10.5-29.6z" fill="url(#f)"/><path d="m437.4 519.8 349.3-35.4c-1.1-10.5-2.6-20.9-4.5-31.1z" fill="url(#d)"/><path d="m437.4 519.8 31.4-349.8c-10.3-.9-20.8-1.4-31.4-1.4z" fill="url(#d)"/><path d="m437.4 519.8-309.9-165.2c-4.9 9.2-9.4 18.7-13.5 28.3z" fill="url(#g)"/><path d="m437.4 519.8-272-222c-6.6 8.1-12.9 16.5-18.8 25.2z" fill="url(#h)"/><path d="m437.4 519.8-337.1-98.5c-2.9 10-5.4 20.2-7.4 30.5z" fill="url(#i)"/><path d="m437.4 519.8-225.1-269.5c-8 6.7-15.8 13.8-23.2 21.2z" fill="url(#d)"/><path d="m437.4 519.8-102.3-336c-10.1 3.1-19.9 6.6-29.6 10.5z" fill="url(#g)"/><path d="m437.4 519.8-35.4-349.4c-10.5 1.1-20.9 2.6-31.1 4.5z" fill="url(#i)"/><path d="m437.4 519.8-168.7-308c-9.2 5.1-18.2 10.5-26.8 16.3z" fill="url(#g)"/></g><path d="m235 8.8-1.6 12.3c-1.6 11.7-3.1 23.4-4.7 35.3v-3.1c0-7.3-.5-13.5-2.6-19.7-2-6.2-6-11.7-10.5-15.5l-.2-.2-.2-.1c-4.6-3.9-11.1-6.6-18-7.6-6.9-1.1-15-1.4-26.8-1.4l-136.7.1 81 45.2v188.8h61.5c6.3 0 9-.3 11.2-.3h.8c5.7-.3 10.6-1 15.4-2.5 4.7-1.5 9.2-4.1 12.7-7.4l.1-.1c4.6-4.1 8.9-10.7 10.5-17.9l2.6-.9c11.2-3.6 22.4-7 33.7-10l9.6-2.6 9.7-2.3c11.4-2.7 22.9-5.1 34.5-7.3l5.6-1 5.9-1c19.6-3.3 39.4-5.7 59.2-7.2l5.8-.5 5.7-.3c13.6-.8 27.2-1.2 40.9-1.2 6.2 0 12.5.1 18.7.3l4.4.1 4.1.2c11.6.5 23.2 1.2 34.7 2.3l9.7.9 9.9 1.2c11.6 1.4 23.2 3.1 34.8 5.1l5.9 1 5.5 1.1c12.2 2.3 24.4 5 36.5 8l5.3 1.3 5.2 1.4c12 3.2 23.9 6.7 35.7 10.5l3.7 1.2v27.9h45.8l19-.3c9.7 0 17.2-.5 24.5-2.8 7.3-2.2 14.1-7.3 17.9-13.3 3.2-4.6 5.6-10.7 6.4-17.1.9-6.5 1.1-13.8 1.1-24.8v-115.9c0-5.9-.1-11-.3-15.4l79.7-44.4-194-.1v7.9c-3-2.2-6.4-3.8-9.8-4.8-6.7-2.1-13.7-2.7-21.7-2.9z" fill="#003a63"/><path d="m198.3 112.8c11.2-3.7 16.2-12.2 16.2-28.2v-31.3c0-13-2.1-19.1-8.2-24.4-5.6-4.5-12.8-5.8-35.9-5.8h-41.4v.1h-40.7l40.6 22.6v182.9h47.3c5.8 0 8-.3 11.2-.3 9.8-.5 15.1-2.4 19.1-6.1 6.6-6.4 8.2-12.5 8.2-33.7v-47.3c0-24.3-3.4-23.7-16.4-28.5zm-21 32.7v45.1c0 6.4-1.9 8.2-8 8.2h-2.9v-69.3h3.7c5.6 0 6.9 1.9 7.2 9.6zm0-59.5c0 9.6-1.3 10.9-9 10.9h-1.9v-36.4l-15.1-8.5h15.1s1.9-.1 2.4-.1c8 0 8.5.5 8.5 13.8zm70.1-63c-7.6 56.8-15.1 115.8-22.3 177.2 11.4-3.7 22.9-7.1 34.4-10.2.7-8.9 1.5-17.8 2.2-26.7-4.2-1.3-8.4-2.6-12.5-4 4.4-1 8.7-2 13.1-2.9 4.7-1 9.5-2 14.2-2.9l2.7 31.5c11.7-2.8 23.4-5.2 35.2-7.4-7-50.2-14-101.6-21-154.6zm17.1 105.6c1.8-21.7 3.5-43.3 5.3-64.7 1.6 21.2 3.1 42.2 4.7 63.1-3.3.5-6.7 1-10 1.6zm99.4 17c-5.8.5-11.7 1.1-17.5 1.8 5.8-3.4 11.7-6.7 17.6-9.9l.6-114.5h-58.1c6.9 3.4 13.8 6.7 20.7 9.9-.3 47.5-.6 95.1-1 142.6 20.1-3.3 40.2-5.8 60.4-7.3 0-8.1.1-16.3.1-24.4-7.6.5-15.2 1.1-22.8 1.8zm72.4-3.5c-5.9 0-11.8.1-17.7.3 5.9-2.8 11.8-5.5 17.7-8.2v-111.2h-59.7c7.4 3.4 14.7 6.7 22.1 10.1-.2 44.8-.3 89.6-.5 134.3 20.2-1.2 40.5-1.5 60.8-1v-24.1c-7.5-.2-15.1-.2-22.7-.2zm53.5-119.1c-7.2 48.3-14.6 96.1-22 143.7 11.8.5 23.6 1.2 35.4 2.3.7-7.4 1.3-14.8 2-22.2-4.7-2.6-9.5-5.1-14.2-7.5 4.9.3 9.9.6 14.8 1l14.4 1.2c1 9.8 2.1 19.7 3.1 29.6 11.9 1.4 23.7 3.2 35.5 5.2-7.7-52.3-15.4-103.4-23-153.3h-46zm18 93.3c1.6-18.9 3.2-37.8 4.8-56.8 1.8 19.1 3.6 38.2 5.4 57.4-3.4-.1-6.8-.4-10.2-.6z" fill="#fff"/><path d="m599.6 115.5c-.7-.4-1.4-.7-2.2-.8.8.5 1.5.7 2.2.8zm18.1-57.6c0-6-1.6-7.8-6.7-8-.8 0-1.6-.1-2.4-.1-.5 0-1.1 0-1.6-.1v.1c-4.3-.2-8.5-.3-12.8-.5 4.3 2.4 8.6 4.7 12.9 7.2.1 11.7.1 23.3.2 35 1.3.1 2.1.2 2.6.3 7.1.8 8.2-.6 8.1-11.3 0-6-.1-12-.1-18 0-1.6-.1-3.1-.2-4.6z" fill="none"/><path d="m655.1 76.1v-18.6c0-26.9-6.4-33.9-32.4-34.3l-13.3-.3h-63.8c8 3.8 16.1 7.7 24.1 11.7.3 47.9.6 95.8 1 143.8 12.5 2.4 24.9 5.1 37.3 8.2-.1-17.6-.1-45.6-.1-65.2.6.1.9.1 1.4.2 9.2 1.6 9.2 1.4 9.3 17.9.1 16.6.1 33.3.2 49.9 12.2 3.3 24.4 6.8 36.5 10.8v-46c0-20.7-.5-25.6-3.9-32.3-2.6-5.2-6.3-8.7-12.6-11.7 12.6-1.4 16.2-9.3 16.3-34.1zm-57.8 38.5c.8.1 1.6.4 2.2.8-.6 0-1.3-.2-2.2-.8zm12.7-22.9c-.5-.1-1.3-.1-2.6-.3-.1-11.7-.1-23.3-.2-35l-12.9-7.2c4.3.2 8.5.3 12.8.5v-.1c.5 0 1.1 0 1.6.1.8 0 1.6.1 2.4.1 5 .2 6.6 2 6.7 8l.3 4.5c0 6 .1 12 .1 18-.1 10.8-1.1 12.2-8.2 11.4zm58.5-68.7v205.6h31.4l18.9-.3c18.3 0 25.8-2.4 30.8-9.8 4.2-6.4 5-12.2 5-34v-115.8c0-10.6-.3-17.9-1-23.3l40-22.3zm48 35.7c.1.9.1 1.9.1 3v128.6c0 7.4-1.3 9.3-7.2 9.3h-3.5v-147.4c1.3 0 7-.2 7-.2h15.5z" fill="#fff"/><path d="m176.2 224.8h-43.5v-181.3l-1.9-1.1-27.9-15.5h26l41.4-.1c23.5 0 29.1 1.5 33.5 5 4.5 3.9 6.8 8.3 6.8 21.5v31.4c0 14.2-3.9 21.3-13.6 24.6l-10.3 3.4 10.1 3.7c.9.3 1.8.6 2.6.9 9.9 3.5 11.4 4.1 11.4 23.9v47.3c0 21-1.6 25.8-7.1 31-2.8 2.6-6.7 4.5-16.6 5.1-1.3 0-2.5 0-3.9.1-1.6 0-3.7.1-7 .1zm-13.6-99v76.9h6.7c8.2 0 11.8-3.6 11.8-12v-51.5c-.2-7.1-1.3-13.3-11-13.3h-7.5zm0-63.1v38h5.7c11 0 12.8-4.3 12.8-14.7v-20.2c0-13.4-.6-17.6-12.3-17.6-.6 0-2.5.1-2.5.1h-29.4l12.5 7.1zm67 132.1c6.6-55.4 13.7-111.9 21.2-168h39.3c6.7 50.8 13.5 100.5 20.1 147.8-9.2 1.7-18.4 3.7-27.5 5.8l-1.7-20.1-.6-7-.4-4.2-4.1.8c-4.8.9-9.5 1.9-14.3 2.9-4.4 1-8.8 1.9-13.2 2.9l-13.4 3.1 13.1 4.2c3.2 1 6.4 2.1 9.7 3.1-.6 7-1.2 14-1.7 21.1-8.9 2.2-17.8 4.8-26.5 7.6zm31.1-66.5-.4 4.8 4.8-.8c3.3-.6 6.7-1.1 10-1.6l3.5-.5-.3-3.5c-1.5-19.9-8.3-89.2-8.3-89.2s-7.5 69.1-9.3 90.8zm69.2 42.8.9-138.1v-2.4l-2.2-1c-2-.9-3.9-1.8-5.8-2.7h37.8l-.3 53.5-.3 55c-5.3 2.9-22.6 14.1-27.7 17 0 0 26-2.4 31.8-2.9 6.2-.6 12.5-1.1 18.6-1.5l-.1 16.8c-17.4 1.4-35.2 3.5-52.7 6.3zm72.3-7.7.5-130.3v-2.5l-2.2-1c-2.1-.9-4.2-1.9-6.3-2.8h38.4v105c-5.3 2.4-22.3 11.5-27.3 13.8 0 0 25.4.3 31.1.3h3.8c5 0 10.1 0 15.2.1v16.5c-5.1-.1-10.2-.2-15.3-.2-12.6 0-25.4.4-37.9 1.1zm152.1 8.3c-9.1-1.5-18.3-2.9-27.5-4l-.1-1.4-2.7-25.2-.3-3.1-3.1-.3c-4.8-.5-9.7-.9-14.5-1.2-4.9-.3-9.9-.7-14.8-1l-12.4-.5c4.1 2.1 18.5 11.9 22.4 14l-1.4 15.9c-9.2-.8-18.4-1.4-27.6-1.8 7.4-47.8 14.3-92.5 20.8-136.3h39.4c8 52.2 15.2 99.7 21.8 144.9zm-41.2-135.7s-7.4 61.1-9 80l-.3 3.9 3.9.2c3.4.2 6.7.4 10.1.7l4.5.3-.4-4.5z" fill="#c41230"/><path d="m621.8 62.3v-.1l-.3-4.4c0-5.6-1.3-11.3-10.3-11.7l-2.4-.1h-1.6c-4.3-.1-27.4-.8-27.4-.8 3.7 2 20 11.5 23.5 13.5l.1 15.3.1 17.5v3.4l3.4.4 2.6.3c1.3.1 2.2.2 3.1.2 1.8 0 4.4-.2 6.4-2.2 2.4-2.5 2.9-6.2 2.8-13.1l-.1-18v-.2z" fill="none"/><path d="m651.3 76.1v-18.6c0-25-4.8-30.1-28.7-30.5l-4.5-.1-8.7-.2h-47.2c3.1 1.5 6.2 3.1 9.2 4.6l2.1 1v2.3l.5 71.6.5 69c9.9 1.9 19.9 4.1 29.7 6.5l-.8-64.8c2.2.3 3.9.5 4.8.6l1.7.3.4.1c12 2.1 12 5.1 12.1 21.5l.1 25 .1 22c9.7 2.6 19.4 5.5 28.9 8.5v-40.8c0-20.4-.5-24.7-3.5-30.6-2.3-4.5-5.4-7.4-10.9-10l-12.1-5.8 13.3-1.4c8.7-.8 13-4.1 13-30.2zm-32.2 17.3c-2 2-4.6 2.2-6.4 2.2-.9 0-1.9-.1-3.1-.2l-2.6-.3-3.4-.4v-3.4l-.2-17.3-.1-15.3c-3.5-2-19.8-11.5-23.5-13.5 0 0 23.1.6 27.4.8h1.6l2.4.1c9 .4 10.3 6.1 10.3 11.7l.3 4.4v.2l.1 18c0 6.9-.4 10.6-2.8 13zm80.7 131.4h-27.5v-198l106.7.1-27.3 15.2-2.3 1.3.4 2.6c.7 4.9 1 11.7 1 22.8v115.8c0 21-.7 26.4-4.4 31.9s-8.8 8.2-27.7 8.2zm2.4-176.4v155h7.3c9.1 0 11-5 11-13.1v-129.4l9.9-5.6 12.5-7.1z" fill="#c41230"/><path d="m436.8 472.8c-65 .1-129.7-12.7-192.1-37.7-2.2-.9-4.5-1.8-6.7-2.7.6-2.3 1.2-4.5 1.8-6.8 4.5-16.5 8.9-32.9 13.4-49.4.6-2.3 1.2-4.5 1.8-6.8 2.2.9 4.5 1.8 6.7 2.6 56.9 22.2 115.8 33.5 175 33.4s118.1-11.6 175-33.9c2.2-.9 4.5-1.8 6.7-2.7.6 2.3 1.2 4.5 1.8 6.8 4.5 16.5 8.9 32.9 13.4 49.4.6 2.3 1.2 4.5 1.8 6.8-2.2.9-4.5 1.8-6.7 2.7-62.2 25.3-126.9 38.2-191.9 38.3z" fill="#003a63"/><path d="m269.8 431.5c-.3.9-.8 1.5-1.5 1.8-.8.4-1.6.4-2.5.1-3.8-1.2-7.5-2.4-11.2-3.6-.9-.3-1.6-.8-2-1.6-.4-.7-.5-1.5-.2-2.3 1.2-3.4 2.3-6.8 3.5-10.2 1.3.4 2.5.9 3.8 1.3l-3.3 9.9c3.2 1.1 6.5 2.1 9.7 3.2 1-3.2 2-6.4 3-9.7-2.6-5.8-5.1-11.6-7.5-17.4-.3-.6-.4-1.2-.5-1.7 0-.5.1-1.1.3-1.8.9-2.7 1.9-5.4 2.8-8.2.3-.8.8-1.4 1.5-1.8.7-.3 1.5-.4 2.4-.1 3.5 1.2 6.9 2.3 10.4 3.4.9.3 1.5.8 1.9 1.4.4.7.4 1.5.2 2.3-1 3.1-1.9 6.3-2.9 9.4-1.2-.4-2.5-.8-3.7-1.2 1-3 1.9-6.1 2.9-9.1-3-1-6.1-1.9-9.1-3-.9 2.8-1.9 5.7-2.8 8.5 2.4 5.8 5 11.6 7.6 17.4.3.6.5 1.2.5 1.7s0 1.1-.2 1.7c-1.1 3.3-2.1 6.5-3.1 9.6zm28.5 8c-.2.8-.7 1.5-1.4 1.8-.7.4-1.6.4-2.5.2-3.9-1-7.8-2.1-11.7-3.1-.9-.3-1.6-.8-2.1-1.5-.4-.7-.5-1.5-.3-2.3 3.3-11.7 6.7-23.4 10-35 .2-.9.7-1.5 1.4-1.8.7-.4 1.5-.4 2.4-.2 3.6 1 7.2 2 10.8 2.9.9.2 1.5.7 2 1.4.4.7.5 1.4.3 2.3l-2.4 9.6c-1.3-.3-2.5-.6-3.8-1l2.4-9.3c-3.2-.8-6.3-1.7-9.5-2.6-3.2 11.5-6.4 23.1-9.6 34.6 3.4.9 6.7 1.8 10.1 2.7.9-3.4 1.7-6.7 2.6-10.1 1.3.3 2.6.7 3.9 1-.9 3.4-1.8 6.9-2.6 10.4zm25 8.7c1.4-6.7 2.7-13.3 4.1-20-3.6-.7-7.2-1.5-10.7-2.3-1.5 6.6-3 13.3-4.5 19.9-1.3-.3-2.7-.6-4-.9l9.6-41.4c1.2.3 2.5.6 3.7.8-1.4 6.1-2.7 12.1-4.1 18.2 3.5.8 7.1 1.6 10.7 2.3 1.2-6.1 2.5-12.2 3.7-18.3 1.2.3 2.5.5 3.7.7-2.7 13.9-5.5 27.8-8.2 41.7-1.3-.1-2.7-.4-4-.7zm34.8 3c-.1.9-.5 1.6-1.2 2-.7.5-1.5.6-2.5.5-4.3-.6-8.6-1.3-12.9-2-1-.2-1.7-.6-2.2-1.2-.5-.7-.7-1.4-.5-2.3 2.1-12 4.2-23.9 6.3-35.9.2-.9.6-1.5 1.2-2 .7-.5 1.4-.6 2.3-.4 4 .7 8 1.3 11.9 1.9.9.1 1.6.5 2.1 1.1s.7 1.4.6 2.3c-1.7 11.9-3.4 23.9-5.1 36zm1.3-36.4c-3.5-.5-7.1-1.1-10.6-1.7l-6 35.4c3.8.6 7.5 1.2 11.3 1.8 1.8-11.8 3.6-23.6 5.3-35.5zm29.1 39.9c-.1.9-.5 1.6-1.1 2.1-.7.5-1.5.7-2.5.6-4.3-.4-8.6-.9-13-1.4-1-.1-1.7-.5-2.3-1.1-.5-.6-.8-1.4-.6-2.3 1.5-12.1 2.9-24.1 4.4-36.2.1-.9.5-1.6 1.1-2 .6-.5 1.4-.7 2.3-.6 4 .5 8 .9 12 1.3.9.1 1.6.4 2.1 1s.8 1.4.7 2.2c-1 12.2-2 24.3-3.1 36.4zm-.6-36.4c-3.6-.3-7.1-.7-10.7-1.1-1.4 11.9-2.7 23.8-4.1 35.7l11.4 1.2c1.1-12 2.2-23.9 3.4-35.8zm11.4 40.2c1-14.1 1.9-28.2 2.9-42.4 1.3.1 2.5.2 3.8.2-.8 13-1.6 26.1-2.4 39.1 3.5.2 7.1.4 10.6.6 0 1.1-.1 2.2-.1 3.3-5-.2-9.9-.5-14.8-.8zm58.5-6.6c0 1.1-.1 2.1-.5 3s-.9 1.8-1.6 2.5-1.6 1.3-2.6 1.7-2.2.6-3.5.7c-3.5.1-7.1.1-10.6.1v-42.5c3.3 0 6.6 0 9.9-.1 1.2 0 2.3.2 3.3.5 1 .4 1.8.9 2.5 1.6s1.3 1.5 1.7 2.4.6 1.9.7 3c.1 9 .4 18 .7 27.1zm-4.7-26.7c0-1.4-.5-2.5-1.4-3.4-.9-.8-2.1-1.2-3.6-1.2-1.8 0-3.6.1-5.4.1l.3 35.9c1.8 0 3.7 0 5.5-.1 1.8 0 3.1-.5 4-1.4s1.3-2.1 1.3-3.4c-.2-8.9-.5-17.7-.7-26.5zm16.1 33.9c-.7-14.1-1.5-28.3-2.2-42.4 1.3-.1 2.5-.1 3.8-.2.8 14.1 1.7 28.3 2.5 42.4-1.4 0-2.7.1-4.1.2zm33.2-5.8c.1.9-.1 1.6-.7 2.3-.5.6-1.3 1-2.3 1.1-3.9.4-7.8.8-11.6 1.1-1 .1-1.8-.1-2.5-.6s-1-1.2-1.1-2c-.3-3.6-.6-7.2-.9-10.7 1.3-.1 2.6-.2 4-.3.3 3.5.6 6.9.9 10.4 3.4-.3 6.7-.6 10.1-1-.3-3.4-.7-6.7-1-10.1-4.7-4.3-9.2-8.6-13.7-13-.5-.5-.9-.9-1.1-1.4-.2-.4-.4-1-.4-1.8-.2-2.9-.5-5.7-.7-8.6-.1-.9.2-1.6.7-2.2s1.3-.9 2.2-1c3.6-.3 7.2-.6 10.8-1 .9-.1 1.7.1 2.3.6s1 1.2 1.1 2c.4 3.3.7 6.5 1.1 9.8-1.3.1-2.6.3-3.8.4-.3-3.2-.7-6.3-1-9.5-3.1.3-6.3.6-9.4.9.3 3 .5 6 .8 8.9 4.5 4.4 9.1 8.7 13.8 12.9.5.5.9.9 1.1 1.3s.4 1 .5 1.7c.1 3.3.4 6.6.8 9.8zm14.3-38.3c1.9 12.9 3.8 25.8 5.7 38.8-1.3.2-2.7.4-4 .6-1.8-12.9-3.6-25.9-5.4-38.8-2.2.3-4.5.6-6.7.9-.1-1.1-.3-2.2-.4-3.3 5.7-.7 11.3-1.5 17-2.4.2 1.1.3 2.2.5 3.2-2.3.4-4.5.7-6.7 1zm36.5 33.4c-4.4-6.8-8.6-13.7-12.7-20.7.1-.3.3-.6.4-.9 2.3-.4 4.7-.9 7-1.4-1-5.1-2.1-10.2-3.1-15.4-3.3.7-6.6 1.3-9.8 1.9 2.3 12.8 4.7 25.7 7 38.5-1.3.2-2.7.5-4 .7-2.4-13.9-4.8-27.9-7.3-41.8 4.8-.8 9.5-1.7 14.2-2.7.9-.2 1.7-.1 2.3.4.7.4 1.1 1.1 1.3 1.9 1.1 5.3 2.2 10.5 3.3 15.8.2.9 0 1.6-.4 2.3-.4.6-1.1 1.1-2 1.3-1.2.2-2.5.5-3.7.7 3.8 6.1 7.8 12.2 11.8 18.3v.1c-1.5.5-2.9.8-4.3 1zm14.1-3c-3.1-13.8-6.3-27.6-9.4-41.4 1.2-.3 2.5-.6 3.7-.9 3.2 13.8 6.5 27.5 9.7 41.3-1.3.4-2.7.7-4 1zm32.5-11.4c.2.8.1 1.6-.3 2.3-.5.7-1.2 1.2-2.1 1.5-3.9 1.1-7.8 2.2-11.7 3.2-.9.2-1.8.2-2.5-.2s-1.2-1-1.4-1.9c-3-11.8-6-23.5-9-35.3-.2-.9-.1-1.6.3-2.3s1.1-1.1 1.9-1.4c3.6-.9 7.2-1.9 10.8-3 .9-.2 1.7-.2 2.4.2s1.2 1 1.4 1.8c.9 3.2 1.8 6.3 2.8 9.5-1.2.4-2.5.7-3.8 1.1-.9-3.1-1.7-6.1-2.6-9.2-3.2.9-6.3 1.8-9.5 2.6 3.1 11.6 6.1 23.1 9.2 34.7 3.4-.9 6.8-1.8 10.1-2.8-.9-3.4-1.9-6.7-2.8-10 1.3-.4 2.6-.7 3.9-1.1.9 3.4 1.9 6.8 2.9 10.3zm7.4-40.2c4.1 12.4 8.1 24.8 12.2 37.2-1.3.4-2.6.9-3.9 1.3-4-12.4-8-24.9-12-37.3-2.2.7-4.3 1.4-6.5 2-.3-1-.6-2.1-1-3.1 5.5-1.7 11-3.5 16.5-5.3.4 1 .7 2.1 1.1 3.1-2.2.6-4.3 1.3-6.4 2.1zm-338.7-161v4.4c-3 2.3-5.9 4.6-8.9 6.9-6 1.7-12.1 3.4-18.1 5.3-2.9-.6-5.9-1.2-8.8-1.7v-27.6c2.9-2.4 5.9-4.8 8.8-7.2 8.9-2.8 17.9-5.3 27-7.7v12.4c-2.9.8-5.8 1.6-8.8 2.4v-5.2c-5.2 1.4-10.3 2.9-15.4 4.5-1 .8-1.9 1.5-2.9 2.3v19.1c1 .2 2 .4 2.9.7 4.1-1.3 8.3-2.5 12.4-3.6l3-2.4v-2.9c2.9-.8 5.8-1.6 8.8-2.4zm5.9-24.6c3-2.2 5.9-4.4 8.9-6.6 6.5-1.5 13-3 19.6-4.3l9 2.7v27.6l-9 6.3c-6.5 1.3-13.1 2.8-19.6 4.3-3-.8-6-1.6-8.9-2.3zm8.8 2v19.1l3 .9c4.6-1.1 9.2-2.1 13.8-3.1 1-.7 2-1.5 3-2.2v-19.1c-1-.3-2-.6-2.9-.8-4.7 1-9.3 2-13.9 3.1-1.1.7-2.1 1.4-3 2.1zm83.3-15.6c-1.2.1-2.4.3-3.5.4v22.1c1.2-.1 2.4-.3 3.5-.4v7.2c-5.3.6-10.7 1.2-16 1.9v-7.2c1.2-.2 2.4-.3 3.5-.4v-10.7c-3.2 6.4-6.5 12.8-9.7 19.2l-4.5.6c-3.6-6-7.1-11.9-10.7-17.8v12.3c1.2-.2 2.3-.4 3.5-.6v7.2c-5 .8-9.9 1.6-14.9 2.5v-7.2c1.2-.2 2.3-.4 3.5-.6v-22.1c-1.2.2-2.3.4-3.5.6v-7.2c4-.7 7.9-1.4 11.9-2.1 4.2 6.7 8.4 13.5 12.6 20.3 4.2-8 8.4-16 12.6-23.9 3.8-.5 7.7-.9 11.5-1.3.2 2.3.2 4.7.2 7.2zm55-3.5c-1.2 0-2.4.1-3.5.1v22.1c1.2 0 2.4-.1 3.5-.1v7.2c-5.4.1-10.7.3-16.1.5v-7.2c1.2-.1 2.4-.1 3.5-.1v-10.7c-3.3 6.1-6.5 12.2-9.8 18.4l-4.5.3c-3.6-6.3-7.2-12.5-10.8-18.7v12.3c1.2-.1 2.4-.2 3.5-.3v7.2c-5 .4-10 .8-15 1.3v-7.2c1.2-.1 2.4-.2 3.5-.3v-22.1c-1.2.1-2.4.2-3.5.3v-7.2c4-.4 8-.7 12-1 4.2 7.1 8.5 14.2 12.7 21.4 4.2-7.7 8.4-15.3 12.7-22.8 3.9-.1 7.7-.3 11.6-.3.2 2.1.2 4.5.2 6.9zm18.6 20.5c1 .5 2 1.1 3 1.6 3.7 0 7.4.1 11.2.2l3-1.5v-20.5c-1.2 0-2.4-.1-3.5-.1v-7.2c5.4.2 10.7.4 16.1.7v7.2c-1.2-.1-2.4-.1-3.5-.2v24.8c-3 1.4-6.1 2.7-9.1 4.1-5.7-.2-11.3-.3-17-.4-3-1.5-6.1-3-9.1-4.5v-24.8h-3.6v-7.2c5.4-.1 10.7 0 16.1 0v7.2h-3.6zm64.9 12.5c-5.9-8.7-11.7-17.3-17.6-25.8v17c1.2.1 2.4.2 3.5.3v7.2c-5-.4-10-.8-15-1.1v-7.2c1.2.1 2.4.2 3.5.2v-22.1c-1.2-.1-2.4-.2-3.5-.2v-7.2c4.5.3 8.9.6 13.4 1 5.3 7.7 10.6 15.4 15.9 23.3v-14.5c-1.2-.1-2.4-.3-3.5-.4v-7.2c5.2.5 10.3 1.1 15.5 1.8v7.2c-1.2-.1-2.4-.3-3.5-.4v29.3c-3-.5-5.9-.9-8.7-1.2zm21.7-4.4v-22.1c-1.2-.2-2.3-.3-3.5-.5v-7.2c5.3.7 10.7 1.5 16 2.4v7.2c-1.2-.2-2.3-.4-3.5-.6v22.1c1.2.2 2.3.4 3.5.6v7.2c-5.3-.9-10.6-1.7-16-2.4v-7.2c1.2.1 2.3.3 3.5.5zm44-14.3v22.1c1.2.2 2.3.5 3.5.8v7.2c-5.3-1.2-10.6-2.2-15.9-3.3v-7.2c1.2.2 2.3.5 3.5.7v-22.1l-7.8-1.5v4.7c-3-.6-5.9-1.1-8.9-1.6v-11.9c13.8 2.4 27.6 5.2 41.3 8.5v11.9c-2.9-.7-5.9-1.4-8.8-2v-4.7c-2.3-.7-4.6-1.2-6.9-1.6zm65.6 10.4v7.2c-1.4-.4-2.8-.9-4.2-1.3-4.2 4.2-8.4 8.4-12.6 12.7v5.6c1.1.3 2.3.7 3.4 1v7.2c-5.4-1.6-10.8-3.2-16.2-4.7v-7.2c1.2.3 2.3.6 3.5 1v-5.6c-4.6-6.8-9.3-13.5-13.9-20.2-1.4-.3-2.7-.7-4.1-1v-7.2c6.3 1.6 12.6 3.2 18.9 5v7.2c-1.2-.3-2.4-.7-3.6-1l7.5 11.4c2.5-2.4 5-4.8 7.6-7.1-1.2-.4-2.5-.7-3.7-1.1v-7.2c5.8 1.6 11.6 3.4 17.4 5.3z" fill="#fff"/><path d="m479.8 307.8s199.9-4.4 225.7-4.3 60.2 1.3 86.5 10.8-44.7 16.4-59.7 16.9c-15 .6-232.5 13.3-232.5 13.3s-9.7-8.5-16.1-20.2c-3.3-5.2-3.9-16.5-3.9-16.5z" fill="#aeafb3"/><path d="m705.5 303.2c25.8.1 60.2 1.3 86.5 10.8 5.4 2 7.4 4.1 5.9 5.8-.7-.3-2.2-.9-3-1.2-26.3-9.5-60.7-10.7-86.5-10.8s-211.3 6.3-227.7 6.7c-.4-2.8-.8-7-.8-7s199.8-4.4 225.6-4.3z" fill="#fff"/><path d="m735.5 315.2c20.2 1 49.4 4.1 60.8 5.4-8.5 6.2-52.6 10.3-64.1 10.7-15 .6-232.5 13.3-232.5 13.3s-9.7-8.5-16.1-20.2c-.4-.7-.8-1.4-1.1-2.3 22.9-.6 229.9-8.1 253-6.9z" fill="#003a63"/><path d="m731.9 302.9c-2.7-11.2-13.7-16.7-24.2-14-15.7 3.9-40.8 17.2-54.5 31.4-7 6.3-6.7 29.6 44.4 17.7 31.1-7.3 37.1-23.9 34.3-35.1z" fill="#fff"/><path d="m660.3 322.9c-27 3.7-7.3 12.2-7.2 12.9l.1.1s7.7 11.7 46.3 1.8c9.6-2.5 26.7-18 26.7-18l-14.2.1-44.8 15.1 28.5-17.6z" fill="#003a63"/><path d="m726.2 294.1c-4.8-4.5-12.5-6-19.3-4.3-13.5 3.4-33.1 12.8-47.3 24.7 1.3 1.4-11.1 10.3-6.6 10.2l40.2-16.3 38.4-3.8c-.2-.2-2.2-5.1-5.4-10.5z" fill="#aeafb3"/><path d="m707.7 290.4c.7-.6 1.2-1.2 1.6-1.8l-1.5.3c-11.4 2.9-27.7 10.6-41.1 20.1.8.3 1.3.5 1.3.5s27.5-17.3 39.7-19.1z" fill="#fff"/><path d="m731.9 302.9c2.6 10.5-4.3 21.2-15.4 23.9-11.1 2.8-21.3-3.7-23.8-14.1-2.6-10.5 3.5-21 14.5-23.7 11.2-2.8 22.2 3.4 24.7 13.9z" fill="#fff"/><path d="m729 303.6c2.2 8.9-3 17.8-11.5 20-8.5 2.1-17.2-3.3-19.4-12.2s3-17.8 11.5-20c8.6-2.1 17.2 3.3 19.4 12.2z" fill="#003a63"/><path d="m723.6 305c1.4 5.8-1.9 11.6-7.5 13-5.5 1.4-11.2-2.2-12.6-8s1.9-11.6 7.5-13 11.2 2.2 12.6 8z" fill="#aeafb3"/><path d="m721.8 305.4c1.3 5.2-1.7 10.5-6.7 11.7-5 1.3-10.1-2-11.4-7.2s1.7-10.5 6.8-11.7c5-1.2 10.1 2 11.3 7.2z" fill="#003a63"/><path d="m720.3 305.8c.7 2.9-1 5.8-3.7 6.5-2.8.7-5.6-1.1-6.3-4s1-5.8 3.7-6.5 5.6 1.1 6.3 4z" fill="#aeafb3"/><path d="m721.8 305.4c.6 2.6-1.7 5.4-4.2 6.1-2.5.6-5-1-5.7-3.6-.6-2.6.9-5.2 3.4-5.9 2.5-.6 5.9.8 6.5 3.4z" fill="#003a63"/><path d="m718.8 303.9c.2.7-.8 1.6-2.2 1.9-1.4.4-2.7.1-2.9-.7-.2-.7.8-1.6 2.2-1.9 1.5-.3 2.8 0 2.9.7zm-86.1-5.3c-4.4-14.4-17.9-21.1-30-17.4-18.1 5.5-46.3 23.3-61 42.1-7.6 8.3-3.9 36.4 54.1 21.5 36.2-9.3 41.3-31.8 36.9-46.2z" fill="#fff"/><path d="m556.5 341.2 32.4-20.3-50.2 12.3c-.8-.2-.8 27.7 61.6 10.6 11.2-3.1 27.4-23.4 27.4-23.4l-13.8 1.6z" fill="#003a63"/><path d="m602.8 283.2c.7-.8 1.2-1.6 1.7-2.4-.6.1-1.2.3-1.8.5-13.1 4-31.6 14.5-46.4 27.1 1 .4 1.6.6 1.6.6s30.7-23.1 44.9-25.8z" fill="#fff"/><path d="m602.6 282.1c-18.1 5.5-47 22.6-61.7 41.4-2.5 2.7-2.3 6.5-2.2 9.8 30-10.6 58.6-24 67.2-32.7 5.1-5.3 8.2-11.7 9.2-19.1-4.1-1.1-8.3-.7-12.5.6z" fill="#aeafb3"/><path d="m632.7 298.6c4.1 13.4-2.9 27.4-15.6 31.3s-25.4-4.1-29.5-17.5 1.9-27.2 14.7-31.1c12.7-3.9 26.3 3.9 30.4 17.3z" fill="#fff"/><ellipse cx="611.6" cy="305.1" fill="#003a63" rx="18.6" ry="21.6" transform="matrix(.95623329 -.29260537 .29260537 .95623329 -62.491678 192.27559)"/><ellipse cx="611.6" cy="305" fill="#aeafb3" rx="12.1" ry="14.1" transform="matrix(.95623329 -.29260537 .29260537 .95623329 -62.499306 192.324595)"/><ellipse cx="610.6" cy="305.3" fill="#003a63" rx="10.9" ry="12.7" transform="matrix(.95623329 -.29260537 .29260537 .95623329 -62.625004 192.050228)"/><ellipse cx="613.5" cy="304.5" fill="#aeafb3" rx="6.1" ry="7" transform="matrix(.95626903 -.29248854 .29248854 .95626903 -62.224884 192.747493)"/><path d="m621.1 302.1c1 3.4-1.4 7.1-4.3 8s-6.1-1.1-7.1-4.5c-1-3.3.5-6.8 3.4-7.7 2.8-.8 6.9.9 8 4.2z" fill="#003a63"/><ellipse cx="614.4" cy="301.1" fill="#fff" rx="3.1" ry="1.7" transform="matrix(.95635577 -.29220479 .29220479 .95635577 -61.172516 192.660651)"/><path d="m682.1 303.4c2.9-20.6 19.1-35.1 36.2-32.5 3 .5 5.8 1.4 8.4 2.8-7.7-4.5-16.7-5.9-25.2-3.3-18 5.5-27.4 26.9-21 47.7 2.3 7.6 6.4 14 11.5 18.9-7.7-7.9-11.8-20.4-9.9-33.6zm63.4-5.2c-2.3-7.5-6.3-13.9-11.4-18.8 7.6 7.9 11.6 20.4 9.8 33.5-2.9 20.6-19.1 35.1-36.2 32.5-3-.5-5.8-1.4-8.4-2.8 7.7 4.5 16.7 5.9 25.2 3.3 18-5.5 27.4-26.8 21-47.7zm-168.9 1.3c3.3-23.2 21.5-39.5 40.8-36.6 3.3.5 6.5 1.6 9.4 3.1-8.7-5-18.8-6.7-28.4-3.7-20.2 6.2-30.8 30.3-23.6 53.7 2.6 8.5 7.2 15.7 12.9 21.3-8.7-8.9-13.2-22.9-11.1-37.8zm71.4-5.8c-2.6-8.5-7.1-15.7-12.8-21.2 8.6 8.9 13.1 22.9 11 37.7-3.3 23.1-21.5 39.5-40.8 36.6-3.4-.5-6.5-1.6-9.4-3.1 8.7 5 18.8 6.7 28.4 3.7 20.2-6.2 30.8-30.3 23.6-53.7z" fill="#fff"/><path d="m411 283.9s57-38.1 96.4-39.5l9.2 4.9s24.8-9.9 50.3-9.6c25.6.3 39.9 37.2 22.7 57.9-12.7 15.1-80.6 45.5-117.7 56.8-45.2 13.8-148.6 28.9-182.6 18.8-3.3-10.9-5.1-19.3 1.5-22.8-.1-9.2-2.2-76.5 2.1-94s12.5-9.6 14.2-4 13.1 35.4 15.7 43.8c2.6 8.5 17.6 18.5 27.9 15.4 10.3-3.2 60.3-27.7 60.3-27.7z" fill="#aeafb3"/><path d="m291.5 326c1.4-.4 3.1-1 4-1.2 0-1.5-1.5-55.3-1.9-66.6-1.9 10-2.6 32.8-2.1 67.8z" fill="#aeafb3"/><path d="m492.2 245.6c-19 6.2-57.9 28.7-57.9 28.7l24.6-10.1-.7 8.4 1.8-1c2.3-1.3 4.8-2.6 7.5-3.9l.6-.3 42.8-22z" fill="#fff"/><path d="m518.8 249.5-8.1-4.1-5.2.1.3.2c-6.9.5-15.1 2.3-24.4 5.6l-1 .4-1.1.4c-3.2 1.2-6.5 2.6-9.8 4l-.6.3-.9 11 1.7-.8c3.9-1.8 8.2-3.6 12.7-5.3l1-.4 1.1-.4c14.8-5.4 27.9-8.5 28.4-8.6l2.2-.5-.3-.2z" fill="#fff"/><path d="m303.3 253.5c1.7 5.6 13.1 35.4 15.7 43.8 2.6 8.5 17.6 18.5 27.9 15.4.6-.2 1.4-.5 2.4-.8-10.1 1.8-23.9-7.7-26.4-15.7-2.6-8.5-14-38.2-15.7-43.8-1.2-4-5.8-9.2-9.8-5.5 2.7.6 5.1 3.9 5.9 6.6z" fill="#003a63"/><path d="m318 297.7c-2.6-8.5-12.9-38.5-14.7-44.1-.8-2.8-3.2-6.1-6-6.7 0 0 4.9 6.3 5.2 7.9 2.7 13 15.5 42.9 15.5 42.9z" fill="#fff"/><path d="m507.3 246.7c-8.3.3-17.5 2.8-25.5 5.7l2.3 7.1c15.3-5.6 28.5-8.7 28.5-8.7zm-25.3 13.6c-.7-2.3-1.6-4.8-2.3-7.2-3.6 1.4-6.9 2.7-9.8 4-.2 2.8-.5 5.9-.7 8.4 4.3-1.8 8.6-3.6 12.8-5.2zm-14.4-2.1c-4.6 2.1-7.4 3.7-7.4 3.7l-.8 8.7c2.4-1.4 4.9-2.7 7.5-3.9z" fill="#003a63"/><path d="m483.7 277.8-.1.3.4 5.8v-.5c-.2.9 0 1.8.6 2.3.5.5 1.3.7 2 .4l9.7-3.5c1-.3 1.7-1.4 2-2.3l.1-.3-.4-5.8v.5c.2-.9 0-1.8-.6-2.3-.5-.5-1.3-.7-2-.4l-9.8 3.5-15.4 5.4z" fill="#fff"/><path d="m497.8 279.5c-.1.5-.5 1-.9 1.2l-9.7 3.5c-.4.1-.6-.2-.4-.8l-.4-5.5c.1-.5.5-1 .9-1.2l9.7-3.5c.4-.1.6.2.4.8z" fill="#003a63"/><path d="m500.6 271.3-.1.3.4 5.8v-.5c-.2.9 0 1.8.6 2.3.5.5 1.3.7 2 .4l9.7-3.5c1-.3 1.7-1.4 2-2.3l.1-.3-.4-5.8v.5c.2-.9 0-1.7-.6-2.3-.5-.5-1.3-.7-2-.4l-14.9 5.7z" fill="#fff"/><path d="m514.7 273c-.1.5-.5 1-.9 1.2l-9.7 3.5c-.4.1-.6-.2-.4-.8l-.4-5.5c.1-.5.5-1 .9-1.2l9.7-3.5c.4-.1.6.2.4.8z" fill="#003a63"/><path d="m525.4 262.6-.1.3.4 5.8v-.5c-.2.9 0 1.8.6 2.3.5.5 1.3.7 2 .4l9.7-3.5c1-.3 1.7-1.4 2-2.3l.1-.3-.4-5.8v.5c.2-.9 0-1.8-.6-2.3-.5-.5-1.3-.7-2-.4l-18.9 6.7z" fill="#fff"/><path d="m539.5 264.3c-.1.5-.5 1-.9 1.2l-9.7 3.5c-.4.1-.6-.2-.4-.8l-.4-5.5c.1-.5.5-1 .9-1.2l9.7-3.5c.4-.1.6.2.4.8zm17 22.1s20.4-10.1 39.9-18.2c1.9 10.1.1 21-6.8 29.3-12.7 15.1-80.6 45.5-117.7 56.8-45.2 13.8-148.6 28.9-182.6 18.8-.4-1.3-.8-2.6-1.1-3.9l13.6-2.2-1.8-6 14.1-7 4.4 7.9s43.2-5.1 56.6-9.2l-43.5 11.6 50.7-28.9 34.5-19.4s105.7-36.6 119.4-43.2l-122.8 74.2z" fill="#003a63"/><path d="m420.3 294.1 129.5-46.5c-6.3 7.7-8.5 19.9-4.8 32 5.3 17.5 20.9 28.2 34.8 23.9 2.3-.7 4.9-2 7.5-3.6.9-.8 1.7-1.7 2.4-2.4 17.2-20.7 2.9-57.6-22.7-57.9h-2.6c-19.3.2-35.4 5.4-42.5 7.6-34.4 10.2-63 24.2-63.7 24.7z" fill="#fff"/><path d="m566.9 239.7h-2.6c-4.8.1-15.7 8.2-14.5 8-4.6 5.6-7 13.5-6.6 22.1.3 2.7.9 5.5 1.7 8.3 3 9.7 8.7 17.6 15.8 22.8 5.9 3.5 12.6 4.8 19 2.8 2.3-.7 4.9-2 7.5-3.6.9-.8 1.7-1.7 2.4-2.4 17.2-20.8 2.9-57.8-22.7-58z" fill="#fff"/><ellipse cx="570.8" cy="271.4" fill="#003a63" rx="23.7" ry="29.9" transform="matrix(.95623329 -.29260537 .29260537 .95623329 -54.413788 178.882879)"/><path d="m313.2 350.6c-1.1 0-112 4.2-117.6 4.1-4.7-.1-14.2 3.7-14.4 5.3l-.2 1 8.2 1.4 111-.2 15.1-7.5-1.3-4.1z" fill="#003a63"/><path d="m299.9 361.1 14.1-7-.7-2.4s-112 4.2-117.7 4.1-13.3 4.3-13.3 4.3l7 1.2z" fill="#003a63"/><path d="m195.6 355.8c-5.7-.1-13.3 4.3-13.3 4.3l3.7.6c2.5-1 5.4-1.8 7.9-1.8 5.7.1 117.7-4.1 117.7-4.1l.1.4 2.3-1.1-.7-2.4c-.1 0-112.1 4.2-117.7 4.1z" fill="#fff"/><path d="m508.6 246.5 4.3 3.5 3.3-.6-5.7-2.9z" fill="#003a63"/><ellipse cx="563" cy="259.6" fill="#fff" rx="8.1" ry="5.4" transform="matrix(.95620264 -.2927055 .2927055 .95620264 -51.319223 176.144555)"/><ellipse cx="572.6" cy="251.1" fill="#fff" rx="1.8" ry="1.5" transform="matrix(.95615154 -.29287238 .29287238 .95615154 -48.441231 178.687607)"/><path d="m495.8 335.4 73.8-34.3 14 .9z" fill="#fff"/><path d="m349.5 299.1s-153.5 9.3-181 8.2c-16.6-.7-74.3 7-91.1 13-27.4 9.8 48.3 16.5 64.4 17.9 16 1.4 188.9 2.6 188.9 2.6s9.8-9.4 15.9-22.7c3.1-5.9 2.9-19 2.9-19z" fill="#aeafb3"/><path d="m168.4 304.8c-18.1.4-75 5.2-94.8 14.1-5.5 2.5-3 5.5-1.3 7.5.7-.3 1.5-.7 2.4-1 27.4-9.8 61-11.3 90.9-12.4 27.5-1 166.8-7.3 184.3-6 .2-3.2.4-8.1.4-8.1s-154.4 5.2-181.9 5.9z" fill="#fff"/><path d="m137.8 320.6c-25.8 1.7-52.5 5.8-64.6 6.7 9.4 7.6 56.4 9.8 68.6 10.8 16 1.4 190.3 3.3 190.3 3.3s8.3-10 14.4-23.3c.4-.8.7-1.6 1-2.6-24.3-1.8-185.2 3.5-209.7 5.1z" fill="#003a63"/><path d="m281.5 297.5c-4.4-14.4-17.9-21.1-30-17.4-18.1 5.5-46.3 23.3-61 42.1-7.6 8.3-3.9 36.4 54.1 21.5 36.2-9.3 41.3-31.8 36.9-46.2z" fill="#fff"/><path d="m205.3 340.1 32.4-20.3-50.2 12.3c-.8-.2-.8 27.7 61.5 10.6 11.2-3.1 27.4-23.4 27.4-23.4l-13.8 1.6z" fill="#003a63"/><path d="m251.6 282.1c.7-.8 1.2-1.6 1.7-2.4-.6.1-1.2.3-1.8.5-13.1 4-31.6 14.5-46.4 27.1 1 .4 1.6.6 1.6.6s30.7-23.1 44.9-25.8z" fill="#fff"/><path d="m193.9 317.8c-6.6 7.3-6.5 11.1-6.4 14.4 30-10.6 58.6-24 67.2-32.7 5.1-5.3 8.2-12.2 9.3-19.6-4-1-17.1 7.4-16.7 4.9z" fill="#aeafb3"/><path d="m281.5 297.5c4.1 13.4-2.9 27.4-15.6 31.3s-25.4-4.1-29.5-17.5 1.9-27.2 14.7-31.1c12.7-3.8 26.3 3.9 30.4 17.3z" fill="#fff"/><ellipse cx="260.4" cy="304" fill="#003a63" rx="18.6" ry="21.6" transform="matrix(.95623329 -.29260537 .29260537 .95623329 -77.557517 89.493884)"/><ellipse cx="260.4" cy="304" fill="#aeafb3" rx="12.1" ry="14.1" transform="matrix(.95623329 -.29260537 .29260537 .95623329 -77.558805 89.495274)"/><ellipse cx="259.4" cy="304.3" fill="#003a63" rx="10.9" ry="12.7" transform="matrix(.95623329 -.29260537 .29260537 .95623329 -77.691914 89.239366)"/><ellipse cx="262.3" cy="303.4" fill="#aeafb3" rx="6.1" ry="7" transform="matrix(.95617709 -.29278894 .29278894 .95617709 -77.337326 90.083021)"/><path d="m269.9 301.1c1 3.4-1.4 7.1-4.3 8s-6.1-1.1-7.1-4.5.5-6.8 3.4-7.7c2.8-.9 7 .8 8 4.2z" fill="#003a63"/><ellipse cx="263.2" cy="300.1" fill="#fff" rx="3.1" ry="1.7" transform="matrix(.95614132 -.29290576 .29290576 .95614132 -76.346196 90.259696)"/><path d="m458.1 272s28.9-18.2 58.5-22.7l6.6 3.2-61.7 20.8zm33.9-26.6-22.4 10.6-32.4 17.3s58.1-28.4 76.4-26.3c-.1.1-7.1-6.9-21.6-1.6zm-69.9 51.3c-4.9-15.9-19.8-23.3-33.2-19.2-20 6.1-51.1 25.8-67.4 46.5-8.4 9.2-4.3 40.3 59.8 23.8 40-10.3 45.7-35.2 40.8-51.1z" fill="#fff"/><path d="m337.9 343.8 35.8-22.4-55.5 13.6c-.8-.2-.9 30.6 68 11.7 12.4-3.4 30.3-25.8 30.3-25.8l-15.2 1.8z" fill="#003a63"/><path d="m389 279.7c.8-.9 1.4-1.8 1.8-2.7-.7.1-1.3.3-2 .5-14.5 4.4-34.9 16-51.2 30 1.1.4 1.7.7 1.7.7s34-25.5 49.7-28.5z" fill="#fff"/><path d="m325.3 319.1c-7.3 8-7.1 12.2-7 15.9 33.1-11.7 64.8-26.5 74.2-36.1 5.6-5.8 9.1-13.4 10.3-21.7-4.5-1.2-18.9 8.2-18.4 5.4z" fill="#aeafb3"/><path d="m422.1 296.7c4.5 14.8-3.2 30.3-17.3 34.6s-28.1-4.5-32.6-19.4c-4.5-14.8 2.1-30 16.2-34.3 14.1-4.2 29.2 4.3 33.7 19.1z" fill="#fff"/><ellipse cx="398.7" cy="303.9" fill="#003a63" rx="20.5" ry="23.9" transform="matrix(.95623329 -.29260537 .29260537 .95623329 -71.475333 129.986747)"/><ellipse cx="398.7" cy="303.9" fill="#aeafb3" rx="13.4" ry="15.5" transform="matrix(.95626903 -.29248854 .29248854 .95626903 -71.443539 129.903797)"/><path d="m409.2 300.7c2.3 7.4-1.1 15-7.4 16.9-6.4 2-13.4-2.5-15.6-9.9-2.3-7.4 1.1-15 7.4-16.9s13.4 2.5 15.6 9.9z" fill="#003a63"/><path d="m407.2 301.3c1.3 4.1-.6 8.3-4.1 9.4s-7.4-1.4-8.7-5.5.6-8.3 4.1-9.4c3.6-1.1 7.5 1.4 8.7 5.5z" fill="#aeafb3"/><path d="m409.2 300.7c1.1 3.7-1.6 7.8-4.8 8.8s-6.7-1.2-7.8-4.9.5-7.5 3.7-8.5c3.3-1 7.8.9 8.9 4.6z" fill="#003a63"/><ellipse cx="401.9" cy="299.6" fill="#fff" rx="3.4" ry="1.9" transform="matrix(.95610041 -.29303926 .29303926 .95610041 -70.14135 130.905326)"/><path d="m226.2 298.8c3.2-22.5 20.9-38.4 39.6-35.5 3.2.5 6.3 1.5 9.1 3-8.4-4.9-18.2-6.5-27.6-3.6-19.6 6-29.9 29.4-22.9 52.2 2.5 8.3 7 15.3 12.5 20.6-8.3-8.7-12.7-22.3-10.7-36.7zm69.4-5.7c-2.5-8.2-6.9-15.2-12.5-20.6 8.3 8.7 12.7 22.2 10.7 36.6-3.2 22.5-20.9 38.4-39.6 35.5-3.3-.5-6.3-1.5-9.1-3 8.4 4.9 18.2 6.5 27.6 3.6 19.6-5.9 29.9-29.3 22.9-52.1zm60.3 4.5c3.9-27.8 25.8-47.4 48.9-43.9 4 .6 7.8 1.9 11.3 3.7-10.4-6-22.5-8-34-4.5-24.3 7.4-36.9 36.3-28.3 64.4 3.1 10.2 8.6 18.9 15.5 25.5-10.4-10.6-15.9-27.4-13.4-45.2zm85.7-7.1c-3.1-10.1-8.6-18.8-15.4-25.4 10.3 10.7 15.7 27.5 13.2 45.2-3.9 27.7-25.8 47.4-48.9 43.9-4-.6-7.8-1.9-11.3-3.8 10.4 6 22.5 8 34 4.5 24.3-7.4 37-36.2 28.4-64.4z" fill="#fff"/></svg>